<mxfile host="app.diagrams.net" modified="2024-08-27T15:16:13.213Z" agent="Mozilla/5.0 (Macintosh; Intel Mac OS X 10_15_7) AppleWebKit/537.36 (KHTML, like Gecko) Chrome/127.0.0.0 Safari/537.36" etag="ou91MOYcIJSVtPTulOxR" version="24.0.5" type="github" pages="2">
  <diagram name="Sivu-1" id="L24YR4mxjg8pdM1JmiOZ">
    <mxGraphModel dx="1628" dy="879" grid="1" gridSize="10" guides="1" tooltips="1" connect="1" arrows="1" fold="1" page="1" pageScale="1" pageWidth="827" pageHeight="1169" math="0" shadow="0">
      <root>
        <mxCell id="0" />
        <mxCell id="1" parent="0" />
        <mxCell id="JYpF7NDxPvWHbW9yyKpU-20" value="" style="group" parent="1" vertex="1" connectable="0">
          <mxGeometry x="530" y="30" width="270" height="340" as="geometry" />
        </mxCell>
        <mxCell id="JYpF7NDxPvWHbW9yyKpU-19" value="" style="rounded=1;whiteSpace=wrap;html=1;fillColor=none;" parent="JYpF7NDxPvWHbW9yyKpU-20" vertex="1">
          <mxGeometry width="270" height="340" as="geometry" />
        </mxCell>
        <mxCell id="JYpF7NDxPvWHbW9yyKpU-15" value="&lt;span style=&quot;font-size: 12px; background-color: initial;&quot;&gt;Spikes in Demand&lt;/span&gt;&lt;br&gt;&lt;div style=&quot;font-size: 12px;&quot;&gt;&lt;ul&gt;&lt;li&gt;Scales as spikes occur&lt;/li&gt;&lt;/ul&gt;&lt;div&gt;Static sites&lt;/div&gt;&lt;div&gt;&lt;ul&gt;&lt;li&gt;As websites&lt;/li&gt;&lt;/ul&gt;&lt;div&gt;Financial analysis&lt;/div&gt;&lt;/div&gt;&lt;div&gt;&lt;ul&gt;&lt;li&gt;Raw data that other services use for analysis&lt;/li&gt;&lt;/ul&gt;&lt;div&gt;Disaster rec&lt;/div&gt;&lt;/div&gt;&lt;div&gt;&lt;ul&gt;&lt;li&gt;Data backup and disaster recovery&lt;/li&gt;&lt;/ul&gt;&lt;/div&gt;&lt;/div&gt;" style="text;strokeColor=none;fillColor=none;html=1;align=left;verticalAlign=middle;whiteSpace=wrap;rounded=0;fontSize=16;" parent="JYpF7NDxPvWHbW9yyKpU-20" vertex="1">
          <mxGeometry x="30" y="30" width="190" height="310" as="geometry" />
        </mxCell>
        <mxCell id="JYpF7NDxPvWHbW9yyKpU-13" value="&lt;font style=&quot;font-size: 23px;&quot;&gt;Using S3&lt;/font&gt;" style="text;strokeColor=none;fillColor=none;html=1;align=center;verticalAlign=middle;whiteSpace=wrap;rounded=0;fontSize=16;" parent="JYpF7NDxPvWHbW9yyKpU-20" vertex="1">
          <mxGeometry x="17.5" y="10" width="215" height="40" as="geometry" />
        </mxCell>
        <mxCell id="JYpF7NDxPvWHbW9yyKpU-22" value="" style="group" parent="1" vertex="1" connectable="0">
          <mxGeometry x="-60" y="20" width="569" height="640" as="geometry" />
        </mxCell>
        <mxCell id="JYpF7NDxPvWHbW9yyKpU-18" value="" style="rounded=1;whiteSpace=wrap;html=1;fillColor=none;container=0;" parent="JYpF7NDxPvWHbW9yyKpU-22" vertex="1">
          <mxGeometry width="569" height="580" as="geometry" />
        </mxCell>
        <mxCell id="JYpF7NDxPvWHbW9yyKpU-1" value="&lt;font style=&quot;font-size: 23px;&quot;&gt;Defining S3&lt;/font&gt;" style="text;strokeColor=none;fillColor=none;html=1;align=center;verticalAlign=middle;whiteSpace=wrap;rounded=0;fontSize=16;container=0;" parent="JYpF7NDxPvWHbW9yyKpU-22" vertex="1">
          <mxGeometry x="84.5" y="10" width="400" height="60" as="geometry" />
        </mxCell>
        <mxCell id="JYpF7NDxPvWHbW9yyKpU-3" value="File Storage&lt;br&gt;&lt;ul&gt;&lt;li&gt;&lt;span style=&quot;background-color: initial;&quot;&gt;Hiararchial structure&lt;/span&gt;&lt;/li&gt;&lt;/ul&gt;" style="sketch=0;outlineConnect=0;fontColor=#232F3E;gradientColor=none;fillColor=#7AA116;strokeColor=none;dashed=0;verticalLabelPosition=bottom;verticalAlign=top;align=center;html=1;fontSize=12;fontStyle=0;aspect=fixed;pointerEvents=1;shape=mxgraph.aws4.file_system;container=0;" parent="JYpF7NDxPvWHbW9yyKpU-22" vertex="1">
          <mxGeometry x="31" y="300" width="78" height="73" as="geometry" />
        </mxCell>
        <mxCell id="JYpF7NDxPvWHbW9yyKpU-5" value="" style="sketch=0;outlineConnect=0;fontColor=#232F3E;gradientColor=none;fillColor=#7AA116;strokeColor=none;dashed=0;verticalLabelPosition=bottom;verticalAlign=top;align=center;html=1;fontSize=12;fontStyle=0;aspect=fixed;pointerEvents=1;shape=mxgraph.aws4.bucket_with_objects;container=0;" parent="JYpF7NDxPvWHbW9yyKpU-22" vertex="1">
          <mxGeometry x="189" y="110" width="75" height="78" as="geometry" />
        </mxCell>
        <mxCell id="JYpF7NDxPvWHbW9yyKpU-8" value="Block Storage&lt;br&gt;&lt;ul style=&quot;text-align: left;&quot;&gt;&lt;li&gt;&lt;span style=&quot;background-color: initial;&quot;&gt;Hardrive or virtual HD&amp;nbsp;&lt;/span&gt;&lt;/li&gt;&lt;li&gt;&lt;span style=&quot;background-color: initial;&quot;&gt;Allows partial updates on files&lt;/span&gt;&lt;/li&gt;&lt;/ul&gt;" style="sketch=0;outlineConnect=0;fontColor=#232F3E;gradientColor=none;fillColor=#7AA116;strokeColor=none;dashed=0;verticalLabelPosition=bottom;verticalAlign=top;align=center;html=1;fontSize=12;fontStyle=0;aspect=fixed;pointerEvents=1;shape=mxgraph.aws4.volume;container=0;" parent="JYpF7NDxPvWHbW9yyKpU-22" vertex="1">
          <mxGeometry x="39" y="120" width="62" height="78" as="geometry" />
        </mxCell>
        <mxCell id="JYpF7NDxPvWHbW9yyKpU-10" value="&lt;span style=&quot;color: rgb(35, 47, 62); font-size: 12px; text-wrap: nowrap;&quot;&gt;Object Storage - S3&lt;/span&gt;&lt;div style=&quot;color: rgb(35, 47, 62); font-size: 12px; text-wrap: nowrap;&quot;&gt;&lt;ul&gt;&lt;li style=&quot;&quot;&gt;Data is stored in files as objects - the fundamental entity&lt;/li&gt;&lt;li&gt;&lt;/li&gt;&lt;li style=&quot;&quot;&gt;Container for objects is bucket&amp;nbsp;&lt;/li&gt;&lt;ul&gt;&lt;li&gt;eg. Dropbox is as&lt;/li&gt;&lt;li&gt;data as mails, pics, messages, movies...&lt;/li&gt;&lt;/ul&gt;&lt;li&gt;Massive amounts unsrtuctured data&lt;/li&gt;&lt;li style=&quot;&quot;&gt;Flat structure - prefixes allow folder structure&lt;/li&gt;&lt;li style=&quot;&quot;&gt;All objects has unique URL (inc. rgion, bucket name etc..)&lt;/li&gt;&lt;li style=&quot;&quot;&gt;Also other unique stuff as metadata&amp;nbsp;&lt;/li&gt;&lt;/ul&gt;&lt;div&gt;Benefits&lt;/div&gt;&lt;div&gt;&lt;ul&gt;&lt;li&gt;Durable&lt;/li&gt;&lt;ul&gt;&lt;li&gt;Data is not lost&lt;/li&gt;&lt;li&gt;standard storage 11 nines%&lt;/li&gt;&lt;/ul&gt;&lt;li&gt;Available&lt;/li&gt;&lt;ul&gt;&lt;li&gt;Acces when needed&lt;/li&gt;&lt;li&gt;Unlimited capacity&lt;/li&gt;&lt;li&gt;Available 4 nines%&lt;/li&gt;&lt;/ul&gt;&lt;li&gt;High performance&lt;/li&gt;&lt;ul&gt;&lt;li&gt;Automatic scaling&lt;/li&gt;&lt;li&gt;1000&#39;nd trans per sec as up or downloading from or to&lt;/li&gt;&lt;/ul&gt;&lt;/ul&gt;&lt;/div&gt;&lt;/div&gt;" style="text;strokeColor=none;fillColor=none;html=1;align=left;verticalAlign=middle;whiteSpace=wrap;rounded=0;fontSize=16;container=0;" parent="JYpF7NDxPvWHbW9yyKpU-22" vertex="1">
          <mxGeometry x="169" y="180" width="391" height="410" as="geometry" />
        </mxCell>
        <mxCell id="JYpF7NDxPvWHbW9yyKpU-11" value="Other types" style="text;strokeColor=none;fillColor=none;html=1;align=center;verticalAlign=middle;whiteSpace=wrap;rounded=0;fontSize=16;container=0;" parent="JYpF7NDxPvWHbW9yyKpU-22" vertex="1">
          <mxGeometry y="70" width="140" height="20" as="geometry" />
        </mxCell>
        <mxCell id="JYpF7NDxPvWHbW9yyKpU-12" value="S3" style="text;strokeColor=none;fillColor=none;html=1;align=center;verticalAlign=middle;whiteSpace=wrap;rounded=0;fontSize=16;container=0;" parent="JYpF7NDxPvWHbW9yyKpU-22" vertex="1">
          <mxGeometry x="169" y="70" width="140" height="20" as="geometry" />
        </mxCell>
        <mxCell id="wOVYKrJNmB9qR2LeFTkK-3" value="" style="group" vertex="1" connectable="0" parent="1">
          <mxGeometry x="-50" y="600" width="569" height="710" as="geometry" />
        </mxCell>
        <mxCell id="wOVYKrJNmB9qR2LeFTkK-2" value="" style="rounded=1;whiteSpace=wrap;html=1;fillColor=none;container=0;" vertex="1" parent="wOVYKrJNmB9qR2LeFTkK-3">
          <mxGeometry width="569" height="710" as="geometry" />
        </mxCell>
        <mxCell id="JYpF7NDxPvWHbW9yyKpU-23" value="Moving data in and out of S3" style="text;strokeColor=none;fillColor=none;html=1;align=center;verticalAlign=middle;whiteSpace=wrap;rounded=0;fontSize=23;" parent="wOVYKrJNmB9qR2LeFTkK-3" vertex="1">
          <mxGeometry x="100" y="30" width="380" height="30" as="geometry" />
        </mxCell>
        <mxCell id="JYpF7NDxPvWHbW9yyKpU-24" value="&lt;ul style=&quot;text-align: center;&quot;&gt;&lt;li style=&quot;text-align: left;&quot;&gt;&lt;span style=&quot;font-size: 12px;&quot;&gt;No limits in quantity&lt;/span&gt;&lt;/li&gt;&lt;li style=&quot;text-align: left;&quot;&gt;&lt;span style=&quot;font-size: 12px;&quot;&gt;Requires permission to bucket&lt;/span&gt;&lt;/li&gt;&lt;li style=&quot;text-align: left;&quot;&gt;&lt;span style=&quot;font-size: 12px;&quot;&gt;Encryption and decryption automatic&lt;/span&gt;&lt;/li&gt;&lt;/ul&gt;&lt;div&gt;&lt;span style=&quot;font-size: 12px;&quot;&gt;S3 is not a consumer service&amp;nbsp; - it is a platform for other systems&lt;/span&gt;&lt;/div&gt;&lt;div&gt;&lt;span style=&quot;font-size: 12px;&quot;&gt;&lt;br&gt;&lt;/span&gt;&lt;/div&gt;&lt;div&gt;&lt;span style=&quot;font-size: 12px;&quot;&gt;Options fo moving data into S3&lt;/span&gt;&lt;/div&gt;&lt;div&gt;&lt;ul&gt;&lt;li&gt;&lt;span style=&quot;font-size: 12px;&quot;&gt;AWS management console&lt;/span&gt;&lt;/li&gt;&lt;li&gt;&lt;span style=&quot;font-size: 12px;&quot;&gt;AWS CLI&lt;/span&gt;&lt;/li&gt;&lt;li&gt;&lt;span style=&quot;font-size: 12px;&quot;&gt;AWS SDKs&lt;/span&gt;&lt;/li&gt;&lt;li&gt;&lt;span style=&quot;font-size: 12px;&quot;&gt;S3 rest API&lt;/span&gt;&lt;/li&gt;&lt;/ul&gt;&lt;div&gt;&lt;span style=&quot;font-size: 12px;&quot;&gt;Multipart upload&lt;/span&gt;&lt;/div&gt;&lt;/div&gt;&lt;div&gt;&lt;span style=&quot;font-size: 12px;&quot;&gt;&lt;span style=&quot;white-space: pre;&quot;&gt;&#x9;&lt;/span&gt;Eanbles upload in sections&lt;br&gt;&lt;/span&gt;&lt;/div&gt;&lt;div&gt;&lt;ul&gt;&lt;ul&gt;&lt;li&gt;&lt;span style=&quot;font-size: 12px;&quot;&gt;Recovery from network problems&lt;/span&gt;&lt;/li&gt;&lt;li&gt;&lt;span style=&quot;font-size: 12px;&quot;&gt;stop and continue later&lt;/span&gt;&lt;/li&gt;&lt;li&gt;&lt;span style=&quot;font-size: 12px;&quot;&gt;start before material is totally done / size may expand&lt;/span&gt;&lt;/li&gt;&lt;/ul&gt;&lt;/ul&gt;&lt;div&gt;&lt;span style=&quot;font-size: 12px;&quot;&gt;Transfer acceleration&lt;/span&gt;&lt;/div&gt;&lt;/div&gt;&lt;div&gt;&lt;span style=&quot;font-size: 12px;&quot;&gt;&lt;span style=&quot;white-space: pre;&quot;&gt;&#x9;&lt;/span&gt;Fast and secure file transfers over long distances&lt;br&gt;&lt;/span&gt;&lt;/div&gt;&lt;div&gt;&lt;span style=&quot;font-size: 12px;&quot;&gt;&lt;span style=&quot;white-space: pre;&quot;&gt;&#x9;&lt;/span&gt;Optimal transfer speed, might be 50-500% faster&lt;/span&gt;&lt;/div&gt;&lt;div&gt;&lt;span style=&quot;font-size: 12px;&quot;&gt;&lt;span style=&quot;white-space: pre;&quot;&gt;&#x9;&lt;/span&gt;Uses edgelocations in CloudFront&lt;br&gt;&lt;/span&gt;&lt;/div&gt;&lt;div&gt;&lt;span style=&quot;font-size: 12px;&quot;&gt;&lt;br&gt;&lt;/span&gt;&lt;/div&gt;&lt;div&gt;&lt;span style=&quot;font-size: 12px;&quot;&gt;Transfer family&lt;/span&gt;&lt;/div&gt;&lt;div&gt;&lt;span style=&quot;font-size: 12px;&quot;&gt;AWS manager serverless file transfer service&lt;/span&gt;&lt;/div&gt;&lt;div&gt;&lt;span style=&quot;font-size: 12px;&quot;&gt;Manage file transfers in certain protocols, SFTP, FTPS, FTP&lt;/span&gt;&lt;/div&gt;&lt;div&gt;&lt;span style=&quot;font-size: 12px;&quot;&gt;&lt;br&gt;&lt;/span&gt;&lt;/div&gt;&lt;div&gt;&lt;span style=&quot;font-size: 12px;&quot;&gt;&lt;span style=&quot;white-space: pre;&quot;&gt;&#x9;&lt;/span&gt;Benefits&lt;/span&gt;&lt;/div&gt;&lt;div&gt;&lt;ul&gt;&lt;li&gt;&lt;span style=&quot;font-size: 12px;&quot;&gt;Management, scaling and security is handled by AWS&lt;span style=&quot;white-space: pre;&quot;&gt;&#x9;&lt;/span&gt;&lt;/span&gt;&lt;/li&gt;&lt;/ul&gt;&lt;/div&gt;&lt;div&gt;&lt;span style=&quot;font-size: 12px;&quot;&gt;&lt;span style=&quot;white-space: pre;&quot;&gt;&#x9;&lt;/span&gt;&lt;br&gt;&lt;/span&gt;&lt;/div&gt;" style="text;strokeColor=none;fillColor=none;html=1;align=left;verticalAlign=top;whiteSpace=wrap;rounded=0;fontSize=16;horizontal=1;" parent="wOVYKrJNmB9qR2LeFTkK-3" vertex="1">
          <mxGeometry x="40" y="60" width="490" height="620" as="geometry" />
        </mxCell>
        <mxCell id="wOVYKrJNmB9qR2LeFTkK-1" style="edgeStyle=none;curved=1;rounded=0;orthogonalLoop=1;jettySize=auto;html=1;exitX=0.5;exitY=1;exitDx=0;exitDy=0;fontSize=12;startSize=8;endSize=8;" edge="1" parent="wOVYKrJNmB9qR2LeFTkK-3" source="JYpF7NDxPvWHbW9yyKpU-24" target="JYpF7NDxPvWHbW9yyKpU-24">
          <mxGeometry relative="1" as="geometry" />
        </mxCell>
        <mxCell id="wOVYKrJNmB9qR2LeFTkK-4" value="Storing content with S3" style="text;strokeColor=none;fillColor=none;html=1;align=center;verticalAlign=middle;whiteSpace=wrap;rounded=0;fontSize=23;" vertex="1" parent="1">
          <mxGeometry x="570" y="640" width="380" height="30" as="geometry" />
        </mxCell>
      </root>
    </mxGraphModel>
  </diagram>
  <diagram id="6QR3xMKYOyMuvxVGo-u6" name="Sivu-2">
    <mxGraphModel dx="801" dy="879" grid="0" gridSize="10" guides="1" tooltips="1" connect="1" arrows="1" fold="1" page="0" pageScale="1" pageWidth="827" pageHeight="1169" math="0" shadow="0">
      <root>
        <mxCell id="0" />
        <mxCell id="1" parent="0" />
      </root>
    </mxGraphModel>
  </diagram>
</mxfile>
